<?xml version="1.0" standalone="no"?>
<!DOCTYPE svg PUBLIC "-//W3C//DTD SVG 20010904//EN"
 "http://www.w3.org/TR/2001/REC-SVG-20010904/DTD/svg10.dtd">
<svg version="1.0" xmlns="http://www.w3.org/2000/svg"
 width="2048.000000pt" height="2048.000000pt" viewBox="0 0 2048.000000 2048.000000"
 preserveAspectRatio="xMidYMid meet">

<g transform="translate(0.000000,2048.000000) scale(0.100000,-0.100000)"
fill="#000000" stroke="none">
<path d="M10065 20419 c-322 -24 -632 -114 -930 -268 -102 -52 -6335 -3748
-6644 -3939 -422 -260 -777 -673 -976 -1134 -129 -300 -193 -564 -215 -895 -8
-111 -10 -1335 -8 -4108 3 -3702 5 -3957 21 -4065 118 -776 510 -1409 1122
-1813 55 -36 1376 -823 2935 -1748 1559 -925 3027 -1795 3261 -1935 235 -139
475 -277 535 -307 141 -70 325 -140 470 -177 l115 -30 500 0 c499 0 501 0 598
25 196 49 421 139 589 233 48 27 314 184 592 349 278 165 1736 1030 3240 1923
1504 892 2778 1652 2830 1688 140 96 232 173 355 296 426 428 683 979 745
1595 14 143 14 8009 0 8152 -77 774 -469 1456 -1080 1881 -104 72 -6574 3918
-6735 4004 -289 153 -622 248 -960 273 -154 12 -211 12 -360 0z m376 -459
c245 -25 485 -94 693 -199 128 -65 6560 -3877 6703 -3972 288 -194 539 -486
699 -814 88 -182 138 -332 190 -575 3 -14 -17 11 -45 56 -170 274 -442 395
-762 339 -104 -18 -215 -54 -317 -102 -93 -44 169 117 -3342 -2053 -1587 -981
-2937 -1815 -3000 -1853 -798 -482 -1154 -950 -1220 -1602 -8 -79 -10 -1217
-8 -4040 l4 -3930 21 -95 c29 -126 48 -186 84 -266 76 -171 200 -305 349 -377
51 -25 84 -47 77 -50 -8 -3 -68 -11 -133 -18 -273 -28 -602 17 -874 118 -134
50 -264 117 -500 258 -113 67 -338 201 -500 297 -3311 1963 -5831 3461 -5890
3501 -420 281 -736 735 -860 1236 -16 64 -37 168 -47 231 -17 109 -18 319 -18
4130 0 3244 2 4032 13 4105 58 404 194 737 422 1040 131 174 294 329 473 453
120 83 6594 3922 6717 3983 326 163 714 235 1071 199z m2475 -10814 c18 -14
19 -31 22 -315 2 -239 6 -301 16 -301 7 0 39 9 72 20 151 52 317 74 449 60 77
-9 93 -14 113 -36 13 -15 22 -38 22 -57 0 -18 -31 -155 -70 -305 -71 -283 -86
-319 -146 -358 -21 -14 -32 -15 -90 -4 -246 47 -576 -66 -778 -264 -124 -122
-204 -294 -213 -456 -10 -165 31 -258 137 -313 82 -41 172 -56 405 -67 116 -5
248 -17 295 -25 358 -69 545 -284 589 -679 68 -609 -226 -1306 -738 -1751
l-44 -38 7 -291 6 -291 -24 -51 c-13 -28 -37 -60 -52 -71 -62 -43 -371 -213
-387 -213 -9 0 -25 8 -36 19 -17 17 -19 44 -26 310 -4 160 -8 291 -10 291 -1
0 -51 -16 -110 -35 -159 -52 -265 -68 -420 -62 -142 5 -217 24 -236 60 -17 31
-6 98 61 374 63 258 78 296 132 336 28 21 29 21 118 3 124 -26 301 -18 420 17
337 101 575 321 681 632 21 61 24 88 24 215 0 138 -1 148 -28 202 -69 141
-227 208 -492 208 -546 0 -814 171 -890 570 -18 98 -21 335 -5 448 59 416 251
808 552 1127 42 44 101 100 132 125 l55 45 1 301 0 300 28 55 c26 52 33 57
212 166 102 62 194 113 206 113 11 0 29 -6 40 -14z m3418 -3552 c11 -28 7
-449 -5 -482 -9 -27 -112 -92 -845 -536 -484 -294 -844 -506 -858 -506 -13 0
-27 7 -30 16 -3 9 -6 124 -6 256 l0 240 28 25 c51 46 1656 1001 1683 1002 16
1 29 -6 33 -15z"/>
</g>
</svg>
