<?xml version="1.0" standalone="no"?>
<!DOCTYPE svg PUBLIC "-//W3C//DTD SVG 20010904//EN"
 "http://www.w3.org/TR/2001/REC-SVG-20010904/DTD/svg10.dtd">
<svg version="1.0" xmlns="http://www.w3.org/2000/svg"
 width="900.000000pt" height="500.000000pt" viewBox="0 0 900.000000 500.000000"
 preserveAspectRatio="xMidYMid meet">

<g transform="translate(0.000000,500.000000) scale(0.100000,-0.100000)"
fill="#000000" stroke="none">
<path d="M1590 3470 l0 -140 155 0 156 0 -3 138 -3 137 -152 3 -153 3 0 -141z"/>
<path d="M824 3247 c-2 -7 -3 -69 -2 -138 l3 -124 155 0 155 0 0 135 0 135
-153 3 c-120 2 -154 0 -158 -11z"/>
<path d="M1210 3120 l0 -141 153 3 152 3 3 138 3 137 -156 0 -155 0 0 -140z"/>
<path d="M1590 3120 l0 -141 153 3 152 3 0 135 0 135 -152 3 -153 3 0 -141z"/>
<path d="M2574 3139 c-39 -63 -62 -122 -79 -207 -19 -93 -10 -172 30 -259 14
-30 25 -57 25 -59 0 -2 -30 -13 -67 -26 l-68 -23 -1087 -5 -1088 -5 -26 -27
c-26 -25 -27 -32 -26 -115 3 -157 24 -276 76 -436 61 -183 168 -333 304 -423
268 -179 882 -209 1298 -63 400 139 677 399 868 816 l63 138 54 8 c169 25 251
59 329 139 56 57 104 146 89 164 -18 22 -117 63 -178 74 -37 6 -96 8 -146 4
l-84 -7 -7 39 c-13 75 -80 185 -144 240 -41 35 -95 74 -104 74 -3 0 -17 -19
-32 -41z"/>
<path d="M4184 2939 c-17 -19 -19 -43 -24 -245 l-5 -224 -35 23 c-53 36 -148
68 -220 74 -239 20 -449 -155 -480 -399 -45 -359 322 -624 644 -464 120 59
198 149 236 275 19 59 20 94 20 496 0 422 0 433 -21 459 -27 34 -86 37 -115 5z
m-263 -539 c154 -29 264 -193 229 -342 -16 -67 -39 -105 -93 -155 -62 -57
-120 -77 -209 -71 -85 6 -136 28 -190 85 -104 107 -106 285 -5 392 59 61 97
80 208 100 4 0 31 -4 60 -9z"/>
<path d="M6342 2953 c-7 -3 -19 -18 -27 -33 -13 -25 -15 -116 -15 -607 0 -624
0 -616 54 -641 32 -16 80 -2 96 29 6 10 10 90 10 178 l0 160 43 29 c23 16 47
32 54 35 7 4 87 -78 206 -212 128 -143 204 -221 221 -225 60 -15 116 50 92
106 -9 22 -109 139 -335 390 l-33 38 180 117 c100 65 185 128 191 139 20 44
-21 114 -66 114 -34 0 -71 -21 -318 -184 l-220 -144 -5 336 c-3 186 -7 338 -8
339 -39 41 -79 53 -120 36z"/>
<path d="M450 2770 l0 -140 155 0 155 0 0 140 0 140 -155 0 -155 0 0 -140z"/>
<path d="M824 2897 c-2 -7 -3 -69 -2 -138 l3 -124 155 0 155 0 0 135 0 135
-153 3 c-120 2 -154 0 -158 -11z"/>
<path d="M1210 2770 l0 -140 155 0 155 0 0 140 0 140 -155 0 -155 0 0 -140z"/>
<path d="M1590 2770 l0 -140 155 0 156 0 -3 138 -3 137 -152 3 -153 3 0 -141z"/>
<path d="M1972 2773 l3 -138 153 -3 152 -3 0 141 0 140 -155 0 -156 0 3 -137z"/>
<path d="M4761 2554 c-83 -22 -167 -72 -220 -130 -145 -159 -161 -391 -39
-574 81 -122 218 -193 369 -192 98 0 168 21 244 70 115 74 184 181 205 316 24
153 -25 293 -140 400 -118 109 -272 150 -419 110z m231 -171 c99 -44 168 -151
168 -259 0 -121 -56 -211 -165 -265 -59 -29 -71 -31 -137 -27 -84 6 -139 30
-192 84 -75 78 -102 184 -71 289 22 76 107 166 181 189 62 20 156 15 216 -11z"/>
<path d="M5738 2551 c-213 -70 -347 -287 -310 -502 17 -101 55 -173 128 -247
105 -105 231 -148 381 -130 76 9 193 60 232 102 30 32 31 90 2 119 -32 33 -77
27 -145 -18 -51 -34 -67 -40 -126 -43 -88 -5 -154 16 -215 70 -70 61 -99 126
-99 218 0 90 26 151 85 204 112 102 252 111 379 26 55 -37 93 -38 125 -5 57
56 17 123 -112 187 -60 29 -77 33 -167 35 -78 2 -114 -1 -158 -16z"/>
<path d="M7468 2554 c-207 -50 -348 -228 -348 -439 0 -277 245 -489 516 -447
87 14 200 67 239 114 32 38 33 87 2 116 -31 29 -66 28 -108 -3 -70 -51 -120
-69 -194 -70 -60 0 -81 5 -137 33 -37 18 -77 46 -90 65 -24 31 -58 91 -58 102
0 3 149 5 330 5 361 0 383 3 396 56 13 51 -3 151 -34 218 -56 119 -157 206
-286 245 -78 24 -146 25 -228 5z m227 -178 c55 -25 127 -99 144 -146 l10 -30
-279 0 -279 0 10 30 c17 46 85 116 141 144 71 36 180 37 253 2z"/>
<path d="M8172 2555 c-18 -8 -37 -26 -42 -41 -7 -17 -10 -167 -8 -414 3 -361
4 -389 22 -408 22 -25 51 -31 89 -19 52 17 57 44 57 289 0 202 2 227 21 268
38 85 131 158 222 174 24 5 71 1 124 -10 97 -19 123 -12 144 37 18 44 -3 83
-60 111 -39 20 -61 23 -151 22 -115 -1 -184 -19 -256 -68 l-39 -26 -10 30
c-19 57 -61 77 -113 55z"/>
<path d="M8480 1776 c0 -2 11 -6 25 -8 13 -3 22 -1 19 3 -5 9 -44 13 -44 5z"/>
<path d="M8528 1688 c-10 -10 -14 -18 -9 -18 10 0 36 29 30 34 -2 1 -12 -6
-21 -16z"/>
</g>
</svg>
